<?xml version="1.0" encoding="UTF-8" standalone="no"?>
<!DOCTYPE svg PUBLIC "-//W3C//DTD SVG 1.1//EN"
 "http://www.w3.org/Graphics/SVG/1.1/DTD/svg11.dtd">
<!-- Generated by graphviz version 2.34.0 (20130907.0111)
 -->
<!-- Title: pacman_dfsm Pages: 1 -->
<svg width="1561pt" height="808pt"
 viewBox="0.00 0.00 1561.00 808.00" xmlns="http://www.w3.org/2000/svg" xmlns:xlink="http://www.w3.org/1999/xlink">
<g id="graph0" class="graph" transform="scale(1 1) rotate(0) translate(4 804)">
<title>pacman_dfsm</title>
<polygon fill="white" stroke="white" points="-4,4 -4,-804 1557,-804 1557,4 -4,4"/>
<!-- loading -->
<g id="node1" class="node"><title>loading</title>
<ellipse fill="none" stroke="black" cx="925" cy="-782" rx="39.9464" ry="18"/>
<text text-anchor="middle" x="925" y="-778.3" font-family="Times New Roman,serif" font-size="14.00">Loading</text>
</g>
<!-- idle -->
<g id="node2" class="node"><title>idle</title>
<ellipse fill="none" stroke="black" stroke-width="2" cx="925" cy="-708" rx="58.2422" ry="18"/>
<text text-anchor="middle" x="925" y="-704.3" font-family="Times New Roman,serif" font-size="14.00">Attract mode</text>
</g>
<!-- loading&#45;&gt;idle -->
<g id="edge1" class="edge"><title>loading&#45;&gt;idle</title>
<path fill="none" stroke="black" d="M925,-763.937C925,-755.807 925,-745.876 925,-736.705"/>
<polygon fill="black" stroke="black" points="928.5,-736.441 925,-726.441 921.5,-736.441 928.5,-736.441"/>
</g>
<!-- increasecoins -->
<g id="node3" class="node"><title>increasecoins</title>
<ellipse fill="none" stroke="black" cx="708" cy="-620" rx="94.338" ry="18"/>
<text text-anchor="middle" x="708" y="-616.3" font-family="Times New Roman,serif" font-size="14.00">Increment coin counter</text>
</g>
<!-- idle&#45;&gt;increasecoins -->
<g id="edge2" class="edge"><title>idle&#45;&gt;increasecoins</title>
<path fill="none" stroke="black" stroke-width="2" d="M890.616,-693.373C854.437,-679.035 797.198,-656.351 756.452,-640.202"/>
<polygon fill="black" stroke="black" points="757.576,-636.883 746.99,-636.452 754.997,-643.39 757.576,-636.883"/>
<text text-anchor="middle" x="866" y="-660.3" font-family="Times New Roman,serif" font-size="14.00">Insert coin</text>
</g>
<!-- aretherecoins -->
<g id="node4" class="node"><title>aretherecoins</title>
<polygon fill="none" stroke="black" points="966,-638 820.66,-620 966,-602 1111.34,-620 966,-638"/>
<text text-anchor="middle" x="966" y="-616.3" font-family="Times New Roman,serif" font-size="14.00">Are some coins inserted?</text>
</g>
<!-- idle&#45;&gt;aretherecoins -->
<g id="edge4" class="edge"><title>idle&#45;&gt;aretherecoins</title>
<path fill="none" stroke="black" stroke-width="2" d="M934.589,-690.07C937.702,-684.384 941.099,-677.97 944,-672 947.955,-663.861 951.966,-654.835 955.462,-646.668"/>
<polygon fill="black" stroke="black" points="958.774,-647.821 959.431,-637.247 952.323,-645.103 958.774,-647.821"/>
<text text-anchor="middle" x="1001.5" y="-660.3" font-family="Times New Roman,serif" font-size="14.00">Press start button</text>
</g>
<!-- increasecoins&#45;&gt;idle -->
<g id="edge3" class="edge"><title>increasecoins&#45;&gt;idle</title>
<path fill="none" stroke="black" d="M731.897,-637.598C748.654,-648.617 771.919,-662.712 794,-672 817.354,-681.824 844.225,-689.573 867.528,-695.257"/>
<polygon fill="black" stroke="black" points="866.738,-698.667 877.276,-697.566 868.352,-691.855 866.738,-698.667"/>
</g>
<!-- aretherecoins&#45;&gt;idle -->
<g id="edge6" class="edge"><title>aretherecoins&#45;&gt;idle</title>
<path fill="none" stroke="black" d="M940.692,-635.035C933.276,-640.528 926.071,-647.56 922,-656 918.517,-663.221 917.868,-671.701 918.485,-679.651"/>
<polygon fill="black" stroke="black" points="915.032,-680.232 919.895,-689.645 921.964,-679.254 915.032,-680.232"/>
<text text-anchor="middle" x="931" y="-660.3" font-family="Times New Roman,serif" font-size="14.00">No</text>
</g>
<!-- ready -->
<g id="node5" class="node"><title>ready</title>
<ellipse fill="none" stroke="black" cx="745" cy="-532" rx="46.2191" ry="18"/>
<text text-anchor="middle" x="745" y="-528.3" font-family="Times New Roman,serif" font-size="14.00">Get ready</text>
</g>
<!-- aretherecoins&#45;&gt;ready -->
<g id="edge5" class="edge"><title>aretherecoins&#45;&gt;ready</title>
<path fill="none" stroke="black" d="M932.435,-605.938C893.114,-590.637 827.992,-565.296 785.793,-548.874"/>
<polygon fill="black" stroke="black" points="786.961,-545.573 776.372,-545.208 784.422,-552.097 786.961,-545.573"/>
<text text-anchor="middle" x="887" y="-572.3" font-family="Times New Roman,serif" font-size="14.00">Yes</text>
</g>
<!-- play -->
<g id="node6" class="node"><title>play</title>
<ellipse fill="none" stroke="black" stroke-width="2" cx="633" cy="-444" rx="27" ry="18"/>
<text text-anchor="middle" x="633" y="-440.3" font-family="Times New Roman,serif" font-size="14.00">Play</text>
</g>
<!-- ready&#45;&gt;play -->
<g id="edge7" class="edge"><title>ready&#45;&gt;play</title>
<path fill="none" stroke="black" stroke-dasharray="5,2" d="M724.977,-515.625C706.368,-501.336 678.568,-479.99 658.404,-464.507"/>
<polygon fill="black" stroke="black" points="660.343,-461.582 650.279,-458.268 656.079,-467.134 660.343,-461.582"/>
<text text-anchor="middle" x="713.5" y="-484.3" font-family="Times New Roman,serif" font-size="14.00">Wait</text>
</g>
<!-- ispowermode -->
<g id="node7" class="node"><title>ispowermode</title>
<polygon fill="none" stroke="black" points="1133,-374 989.038,-356 1133,-338 1276.96,-356 1133,-374"/>
<text text-anchor="middle" x="1133" y="-352.3" font-family="Times New Roman,serif" font-size="14.00">Is power mode engaged?</text>
</g>
<!-- play&#45;&gt;ispowermode -->
<g id="edge8" class="edge"><title>play&#45;&gt;ispowermode</title>
<path fill="none" stroke="black" d="M659.901,-442.166C718.009,-439.948 859.349,-432.3 975,-408 1014.83,-399.63 1058.8,-384.975 1090.22,-373.516"/>
<polygon fill="black" stroke="black" points="1091.79,-376.668 1099.96,-369.92 1089.36,-370.101 1091.79,-376.668"/>
<text text-anchor="middle" x="1059" y="-396.3" font-family="Times New Roman,serif" font-size="14.00">Hit ghost</text>
</g>
<!-- pelleteaten -->
<g id="node14" class="node"><title>pelleteaten</title>
<ellipse fill="none" stroke="black" cx="250" cy="-356" rx="77.4897" ry="18"/>
<text text-anchor="middle" x="250" y="-352.3" font-family="Times New Roman,serif" font-size="14.00">Eat the small pellet</text>
</g>
<!-- play&#45;&gt;pelleteaten -->
<g id="edge19" class="edge"><title>play&#45;&gt;pelleteaten</title>
<path fill="none" stroke="black" d="M605.977,-442.976C534.677,-442.488 343.235,-438.313 289,-408 278.571,-402.171 270.038,-392.282 263.642,-382.755"/>
<polygon fill="black" stroke="black" points="266.61,-380.901 258.375,-374.235 260.656,-384.581 266.61,-380.901"/>
<text text-anchor="middle" x="330" y="-396.3" font-family="Times New Roman,serif" font-size="14.00">Hit small pellet</text>
</g>
<!-- move -->
<g id="node17" class="node"><title>move</title>
<ellipse fill="none" stroke="black" cx="378" cy="-356" rx="31.2735" ry="18"/>
<text text-anchor="middle" x="378" y="-352.3" font-family="Times New Roman,serif" font-size="14.00">Move</text>
</g>
<!-- play&#45;&gt;move -->
<g id="edge25" class="edge"><title>play&#45;&gt;move</title>
<path fill="none" stroke="black" stroke-width="2" d="M605.674,-443.308C547.033,-443.343 412.009,-439.874 382,-408 376.114,-401.748 374.103,-392.943 373.88,-384.406"/>
<polygon fill="black" stroke="black" points="377.381,-384.469 374.355,-374.315 370.389,-384.14 377.381,-384.469"/>
<text text-anchor="middle" x="421.5" y="-396.3" font-family="Times New Roman,serif" font-size="14.00">Press joystick</text>
</g>
<!-- leavepowermode -->
<g id="node19" class="node"><title>leavepowermode</title>
<ellipse fill="none" stroke="black" cx="631" cy="-356" rx="80.389" ry="18"/>
<text text-anchor="middle" x="631" y="-352.3" font-family="Times New Roman,serif" font-size="14.00">Leave power mode</text>
</g>
<!-- play&#45;&gt;leavepowermode -->
<g id="edge32" class="edge"><title>play&#45;&gt;leavepowermode</title>
<path fill="none" stroke="black" d="M622.885,-427.248C619.706,-421.434 616.608,-414.641 615,-408 613.066,-400.01 614.386,-391.442 616.941,-383.653"/>
<polygon fill="black" stroke="black" points="620.216,-384.891 620.684,-374.306 613.717,-382.288 620.216,-384.891"/>
<text text-anchor="middle" x="654.5" y="-396.3" font-family="Times New Roman,serif" font-size="14.00">Time runs out</text>
</g>
<!-- powerpelleteaten -->
<g id="node20" class="node"><title>powerpelleteaten</title>
<ellipse fill="none" stroke="black" cx="812" cy="-356" rx="82.3139" ry="18"/>
<text text-anchor="middle" x="812" y="-352.3" font-family="Times New Roman,serif" font-size="14.00">Eat the power pellet</text>
</g>
<!-- play&#45;&gt;powerpelleteaten -->
<g id="edge27" class="edge"><title>play&#45;&gt;powerpelleteaten</title>
<path fill="none" stroke="black" d="M655.005,-433.258C670.46,-426.352 691.578,-416.789 710,-408 730.484,-398.228 753.075,-386.981 771.779,-377.54"/>
<polygon fill="black" stroke="black" points="773.556,-380.564 780.898,-372.925 770.395,-374.318 773.556,-380.564"/>
<text text-anchor="middle" x="786.5" y="-396.3" font-family="Times New Roman,serif" font-size="14.00">Hit power pellet</text>
</g>
<!-- eatfruit -->
<g id="node21" class="node"><title>eatfruit</title>
<ellipse fill="none" stroke="black" cx="480" cy="-356" rx="52.4675" ry="18"/>
<text text-anchor="middle" x="480" y="-352.3" font-family="Times New Roman,serif" font-size="14.00">Eat the fruit</text>
</g>
<!-- play&#45;&gt;eatfruit -->
<g id="edge34" class="edge"><title>play&#45;&gt;eatfruit</title>
<path fill="none" stroke="black" d="M606.923,-439.136C583.176,-434.655 547.961,-425.52 522,-408 511.955,-401.221 503.047,-391.35 496.049,-382.095"/>
<polygon fill="black" stroke="black" points="498.84,-379.98 490.181,-373.874 493.142,-384.047 498.84,-379.98"/>
<text text-anchor="middle" x="543.5" y="-396.3" font-family="Times New Roman,serif" font-size="14.00">Hit fruit</text>
</g>
<!-- eatghost -->
<g id="node9" class="node"><title>eatghost</title>
<ellipse fill="none" stroke="black" cx="1069" cy="-268" rx="57.2688" ry="18"/>
<text text-anchor="middle" x="1069" y="-264.3" font-family="Times New Roman,serif" font-size="14.00">Eat the ghost</text>
</g>
<!-- ispowermode&#45;&gt;eatghost -->
<g id="edge9" class="edge"><title>ispowermode&#45;&gt;eatghost</title>
<path fill="none" stroke="black" d="M1121.26,-339.226C1111.85,-326.579 1098.47,-308.594 1087.6,-293.991"/>
<polygon fill="black" stroke="black" points="1090.32,-291.783 1081.54,-285.85 1084.7,-295.962 1090.32,-291.783"/>
<text text-anchor="middle" x="1117" y="-308.3" font-family="Times New Roman,serif" font-size="14.00">Yes</text>
</g>
<!-- loselife -->
<g id="node10" class="node"><title>loselife</title>
<ellipse fill="none" stroke="black" cx="1208" cy="-268" rx="48.1437" ry="18"/>
<text text-anchor="middle" x="1208" y="-264.3" font-family="Times New Roman,serif" font-size="14.00">Lose a life</text>
</g>
<!-- ispowermode&#45;&gt;loselife -->
<g id="edge11" class="edge"><title>ispowermode&#45;&gt;loselife</title>
<path fill="none" stroke="black" d="M1146.41,-339.625C1157.64,-326.743 1173.88,-308.126 1186.86,-293.239"/>
<polygon fill="black" stroke="black" points="1189.75,-295.25 1193.69,-285.413 1184.48,-290.649 1189.75,-295.25"/>
<text text-anchor="middle" x="1186" y="-308.3" font-family="Times New Roman,serif" font-size="14.00">No</text>
</g>
<!-- arelivesleft -->
<g id="node8" class="node"><title>arelivesleft</title>
<polygon fill="none" stroke="black" points="1438,-198 1322.78,-180 1438,-162 1553.22,-180 1438,-198"/>
<text text-anchor="middle" x="1438" y="-176.3" font-family="Times New Roman,serif" font-size="14.00">Are some lives left?</text>
</g>
<!-- arelivesleft&#45;&gt;idle -->
<g id="edge14" class="edge"><title>arelivesleft&#45;&gt;idle</title>
<path fill="none" stroke="black" d="M1437.68,-198.132C1437.39,-215.488 1437,-243.109 1437,-267 1437,-621 1437,-621 1437,-621 1437,-665.626 1130.58,-692.674 991.843,-702.634"/>
<polygon fill="black" stroke="black" points="991.477,-699.151 981.749,-703.35 991.972,-706.134 991.477,-699.151"/>
<text text-anchor="middle" x="1446" y="-440.3" font-family="Times New Roman,serif" font-size="14.00">No</text>
</g>
<!-- arelivesleft&#45;&gt;ready -->
<g id="edge13" class="edge"><title>arelivesleft&#45;&gt;ready</title>
<path fill="none" stroke="black" d="M1418.76,-195.143C1400.23,-210.542 1375,-237.017 1375,-267 1375,-445 1375,-445 1375,-445 1375,-502.664 955.298,-523.489 801.021,-529.196"/>
<polygon fill="black" stroke="black" points="800.682,-525.706 790.816,-529.566 800.936,-532.702 800.682,-525.706"/>
<text text-anchor="middle" x="1386" y="-352.3" font-family="Times New Roman,serif" font-size="14.00">Yes</text>
</g>
<!-- increasescore -->
<g id="node11" class="node"><title>increasescore</title>
<ellipse fill="none" stroke="black" cx="741" cy="-180" rx="63.5411" ry="18"/>
<text text-anchor="middle" x="741" y="-176.3" font-family="Times New Roman,serif" font-size="14.00">Increase score</text>
</g>
<!-- eatghost&#45;&gt;increasescore -->
<g id="edge10" class="edge"><title>eatghost&#45;&gt;increasescore</title>
<path fill="none" stroke="black" d="M1026.46,-255.845C967.47,-240.379 860.794,-212.409 795.878,-195.389"/>
<polygon fill="black" stroke="black" points="796.393,-191.905 785.832,-192.755 794.617,-198.677 796.393,-191.905"/>
</g>
<!-- loselife&#45;&gt;arelivesleft -->
<g id="edge12" class="edge"><title>loselife&#45;&gt;arelivesleft</title>
<path fill="none" stroke="black" d="M1240.95,-254.678C1281.92,-239.361 1351.87,-213.206 1396.46,-196.531"/>
<polygon fill="black" stroke="black" points="1397.71,-199.802 1405.85,-193.022 1395.26,-193.246 1397.71,-199.802"/>
</g>
<!-- isbonusreached -->
<g id="node12" class="node"><title>isbonusreached</title>
<polygon fill="none" stroke="black" points="961,-124 740.603,-106 961,-88 1181.4,-106 961,-124"/>
<text text-anchor="middle" x="961" y="-102.3" font-family="Times New Roman,serif" font-size="14.00">Reached 10000 points for the first time?</text>
</g>
<!-- increasescore&#45;&gt;isbonusreached -->
<g id="edge15" class="edge"><title>increasescore&#45;&gt;isbonusreached</title>
<path fill="none" stroke="black" d="M780.84,-165.961C816.912,-154.156 870.259,-136.697 909.545,-123.84"/>
<polygon fill="black" stroke="black" points="910.796,-127.113 919.211,-120.676 908.619,-120.46 910.796,-127.113"/>
</g>
<!-- isbonusreached&#45;&gt;play -->
<g id="edge16" class="edge"><title>isbonusreached&#45;&gt;play</title>
<path fill="none" stroke="black" d="M961,-124.166C961,-138.753 961,-160.25 961,-179 961,-357 961,-357 961,-357 961,-416.62 755.664,-435.734 669.922,-441.116"/>
<polygon fill="black" stroke="black" points="669.614,-437.628 659.842,-441.719 670.033,-444.615 669.614,-437.628"/>
<text text-anchor="middle" x="970" y="-264.3" font-family="Times New Roman,serif" font-size="14.00">No</text>
</g>
<!-- getlife -->
<g id="node13" class="node"><title>getlife</title>
<ellipse fill="none" stroke="black" cx="1201" cy="-18" rx="43.319" ry="18"/>
<text text-anchor="middle" x="1201" y="-14.3" font-family="Times New Roman,serif" font-size="14.00">Get a life</text>
</g>
<!-- isbonusreached&#45;&gt;getlife -->
<g id="edge17" class="edge"><title>isbonusreached&#45;&gt;getlife</title>
<path fill="none" stroke="black" d="M999.827,-91.087C1043.7,-75.3644 1114.84,-49.8747 1159.71,-33.7968"/>
<polygon fill="black" stroke="black" points="1160.9,-37.0854 1169.14,-30.4172 1158.54,-30.4957 1160.9,-37.0854"/>
<text text-anchor="middle" x="1113" y="-58.3" font-family="Times New Roman,serif" font-size="14.00">Yes</text>
</g>
<!-- getlife&#45;&gt;play -->
<g id="edge18" class="edge"><title>getlife&#45;&gt;play</title>
<path fill="none" stroke="black" d="M1213.6,-35.381C1254.16,-90.223 1373.77,-269.782 1286,-374 1246.05,-421.436 802.195,-438.084 669.961,-442.01"/>
<polygon fill="black" stroke="black" points="669.811,-438.513 659.917,-442.302 670.015,-445.51 669.811,-438.513"/>
</g>
<!-- pelleteaten&#45;&gt;increasescore -->
<g id="edge20" class="edge"><title>pelleteaten&#45;&gt;increasescore</title>
<path fill="none" stroke="black" d="M295.116,-341.284C338.78,-327.829 406.731,-306.418 465,-286 547.384,-257.132 642.28,-220.213 696.596,-198.725"/>
<polygon fill="black" stroke="black" points="697.922,-201.964 705.929,-195.026 695.343,-195.457 697.922,-201.964"/>
</g>
<!-- arepelletsleft -->
<g id="node15" class="node"><title>arepelletsleft</title>
<polygon fill="none" stroke="black" points="274,-286 91.6313,-268 274,-250 456.369,-268 274,-286"/>
<text text-anchor="middle" x="274" y="-264.3" font-family="Times New Roman,serif" font-size="14.00">Are some pellets left in the level?</text>
</g>
<!-- pelleteaten&#45;&gt;arepelletsleft -->
<g id="edge21" class="edge"><title>pelleteaten&#45;&gt;arepelletsleft</title>
<path fill="none" stroke="black" d="M254.742,-338.009C258.116,-325.917 262.718,-309.428 266.576,-295.601"/>
<polygon fill="black" stroke="black" points="270.033,-296.236 269.35,-285.663 263.291,-294.354 270.033,-296.236"/>
</g>
<!-- arepelletsleft&#45;&gt;play -->
<g id="edge23" class="edge"><title>arepelletsleft&#45;&gt;play</title>
<path fill="none" stroke="black" d="M232.224,-281.909C182.503,-299.459 109.874,-333.362 141,-374 168.726,-410.199 486.336,-433.675 596.018,-440.748"/>
<polygon fill="black" stroke="black" points="596.064,-444.258 606.266,-441.4 596.508,-437.272 596.064,-444.258"/>
<text text-anchor="middle" x="152" y="-352.3" font-family="Times New Roman,serif" font-size="14.00">Yes</text>
</g>
<!-- increaselevel -->
<g id="node16" class="node"><title>increaselevel</title>
<ellipse fill="none" stroke="black" cx="116" cy="-180" rx="116.01" ry="18"/>
<text text-anchor="middle" x="116" y="-176.3" font-family="Times New Roman,serif" font-size="14.00">Increase level and reset arena</text>
</g>
<!-- arepelletsleft&#45;&gt;increaselevel -->
<g id="edge22" class="edge"><title>arepelletsleft&#45;&gt;increaselevel</title>
<path fill="none" stroke="black" d="M247.554,-252.606C222.346,-238.885 184.073,-218.053 155.297,-202.39"/>
<polygon fill="black" stroke="black" points="156.773,-199.208 146.316,-197.501 153.426,-205.356 156.773,-199.208"/>
<text text-anchor="middle" x="219" y="-220.3" font-family="Times New Roman,serif" font-size="14.00">No</text>
</g>
<!-- increaselevel&#45;&gt;ready -->
<g id="edge24" class="edge"><title>increaselevel&#45;&gt;ready</title>
<path fill="none" stroke="black" d="M97.7604,-197.902C82.4294,-214.023 63,-239.816 63,-267 63,-445 63,-445 63,-445 63,-507.913 525.737,-525.533 688.888,-529.79"/>
<polygon fill="black" stroke="black" points="689.107,-533.296 699.193,-530.051 689.285,-526.299 689.107,-533.296"/>
</g>
<!-- move&#45;&gt;play -->
<g id="edge26" class="edge"><title>move&#45;&gt;play</title>
<path fill="none" stroke="black" d="M402.517,-367.48C407.629,-369.648 412.986,-371.908 418,-374 427.197,-377.838 491.553,-404.827 501,-408 533.143,-418.794 570.569,-428.451 597.343,-434.873"/>
<polygon fill="black" stroke="black" points="596.868,-438.357 607.405,-437.254 598.48,-431.545 596.868,-438.357"/>
</g>
<!-- enterpowermode -->
<g id="node18" class="node"><title>enterpowermode</title>
<ellipse fill="none" stroke="black" cx="847" cy="-268" rx="77.4897" ry="18"/>
<text text-anchor="middle" x="847" y="-264.3" font-family="Times New Roman,serif" font-size="14.00">Enter power mode</text>
</g>
<!-- enterpowermode&#45;&gt;play -->
<g id="edge29" class="edge"><title>enterpowermode&#45;&gt;play</title>
<path fill="none" stroke="black" d="M867.165,-285.732C889.981,-306.764 921.682,-343.772 903,-374 878.494,-413.652 737.909,-432.704 669.874,-439.703"/>
<polygon fill="black" stroke="black" points="669.211,-436.251 659.607,-440.724 669.904,-443.217 669.211,-436.251"/>
</g>
<!-- leavepowermode&#45;&gt;play -->
<g id="edge33" class="edge"><title>leavepowermode&#45;&gt;play</title>
<path fill="none" stroke="black" d="M672.19,-371.649C680.868,-376.72 688.924,-383.373 694,-392 703.686,-408.461 685.083,-422.026 665.941,-431.017"/>
<polygon fill="black" stroke="black" points="664.406,-427.868 656.623,-435.056 667.19,-434.291 664.406,-427.868"/>
</g>
<!-- powerpelleteaten&#45;&gt;increasescore -->
<g id="edge30" class="edge"><title>powerpelleteaten&#45;&gt;increasescore</title>
<path fill="none" stroke="black" d="M795.821,-338.298C784.029,-325.147 768.658,-305.789 760,-286 749.074,-261.027 744.431,-230.074 742.458,-208.265"/>
<polygon fill="black" stroke="black" points="745.93,-207.767 741.669,-198.067 738.951,-208.307 745.93,-207.767"/>
</g>
<!-- powerpelleteaten&#45;&gt;arepelletsleft -->
<g id="edge31" class="edge"><title>powerpelleteaten&#45;&gt;arepelletsleft</title>
<path fill="none" stroke="black" d="M751.67,-343.591C741.123,-341.671 730.249,-339.739 720,-338 592.065,-316.288 442.997,-293.79 353.685,-280.61"/>
<polygon fill="black" stroke="black" points="354.033,-277.124 343.629,-279.129 353.012,-284.049 354.033,-277.124"/>
</g>
<!-- powerpelleteaten&#45;&gt;enterpowermode -->
<g id="edge28" class="edge"><title>powerpelleteaten&#45;&gt;enterpowermode</title>
<path fill="none" stroke="black" d="M818.915,-338.009C823.852,-325.877 830.591,-309.32 836.229,-295.465"/>
<polygon fill="black" stroke="black" points="839.572,-296.537 840.099,-285.956 833.088,-293.898 839.572,-296.537"/>
</g>
<!-- eatfruit&#45;&gt;play -->
<g id="edge36" class="edge"><title>eatfruit&#45;&gt;play</title>
<path fill="none" stroke="black" d="M515.679,-369.377C531.251,-375.361 549.462,-383.164 565,-392 580.426,-400.772 596.363,-412.556 608.928,-422.587"/>
<polygon fill="black" stroke="black" points="607.076,-425.592 617.041,-429.192 611.496,-420.164 607.076,-425.592"/>
</g>
<!-- eatfruit&#45;&gt;increasescore -->
<g id="edge35" class="edge"><title>eatfruit&#45;&gt;increasescore</title>
<path fill="none" stroke="black" d="M506.719,-340.331C517.492,-334.246 529.96,-326.985 541,-320 602.789,-280.904 672.358,-231.204 711.004,-203.063"/>
<polygon fill="black" stroke="black" points="713.211,-205.785 719.225,-197.062 709.084,-200.131 713.211,-205.785"/>
</g>
</g>
</svg>
